# xmcd
#
# Track frame offsets: 
#        182
#        20630
#        35680
#        45557
#        60870
#        81010
#        95480
#        111577
#        122755
#        143567
#        154355
#        168602
#        180667
#
# Disc length: 2512 seconds
#
# Revision: 4
# Processed by: cddbd v1.5.2PL0 Copyright (c) Steve Scherf et al.
# Submitted via: ExactAudioCopy v0.99pb4
#
DISCID=ad09ce0d
DTITLE=Champion Jack Dupree - Scoobydoobydoo
DYEAR=1994
DGENRE=Blues
TTITLE0=I Want To Be A Hippy
TTITLE1=Grandma (You´re A Bit Too Slow)
TTITLE2=Puff Puff
TTITLE3=Blues Before Sunrise
TTITLE4=I´ll Try
TTITLE5=Going Back To Louisiana
TTITLE6=Ain´t That A Shame
TTITLE7=Stumbling Block
TTITLE8=Old And Grey
TTITLE9=Who Threw The Whiskey In The Well
TTITLE10=Postman Blues
TTITLE11=Lawdy, Lawdy
TTITLE12=Ba´ La Fouche
EXTD=
EXTT0=
EXTT1=
EXTT2=
EXTT3=
EXTT4=
EXTT5=
EXTT6=
EXTT7=
EXTT8=
EXTT9=
EXTT10=
EXTT11=
EXTT12=
PLAYORDER=
